<svg xmlns="http://www.w3.org/2000/svg" viewBox="0 0 760 530" fill="#E91E46">
  <path d="M258.4,350c-37.8-0.3-61.7-24.1-61.9-59.8c-0.1-27.4-0.6-54.8-1-82.2c-0.2-12.3-4.8-21.3-19.8-23 c15.5-14.4,32.1-18,50.5-12.4c19,5.7,31.3,19,31.8,38.8C259.2,257.3,258.4,303.3,258.4,350z" />
  <path d="M165.6,333.7c-34.3,1.5-59.8-22.2-60.8-56.4c-0.6-22.6-0.1-45.3-0.8-67.9c-0.4-11.6-3.7-22.3-19.7-24.1 c12.1-12.4,25.7-16.9,41.3-14.5c18.2,2.7,31.9,12,37.9,30.1c1.7,5.2,2.8,10.9,2.8,16.4c0.3,37,0.2,73.9,0.2,110.9 C166.5,330,165.9,331.9,165.6,333.7z" />
  <path d="M0,185.2c18-15.8,36.2-19.1,56-10.6c19,8.2,26.9,23.8,26.9,43.9c0,26.1,0,52.3,0,78.4 c-37.4,0.4-61.8-23.2-62-58.7c-0.1-10.3,0.4-20.7-0.6-31C19.3,196,15.4,186.2,0,185.2z" />
  <path d="M719.6,154.9c-1.1,0.8-1.9,1.4-2.7,2.1c-11.4,8.7-22.6,17.5-34.1,25.9c-3.7,2.7-8.1,4.9-12.4,6.3 c-9.4,2.9-17.8,0.8-24.7-7.3c-0.4,0.3-6.6,5.3-10.3,12.2c-1.1,1.7-2,2.9-2.6,4.3c-6.7,14.8-7.7,29.9-2.4,45.2 c0.2,0.7,0.5,1.3,0.7,2c0.6,1.3,1.7,2.7-0.5,4.1c-3.2,2-3.9,2.1-5.2-1c-0.2-0.6-0.4-1.2-0.6-1.7c-11-30.6,0.8-63.4,29-79.8 c6.8-3.9,14-7,20.9-10.5c-2.3,0.5-4.7,0.9-7.2,1.5c-2.6,0.7-5.1,1.5-7.6,2.4c-2.4,0.8-4.8,1.7-7.2,2.7c-2.4,1-4.8,2.2-7.8,3.6 c0.2-1.6,0.3-2.8,0.6-3.9c2.7-10,9.9-16.1,18.6-20.8c12.5-6.6,25.1-6.3,37.4,0c5.7,2.9,10.8,7,16.2,10.7C718.2,153.1,718.7,153.9,719.6,154.9z" />
  <path d="M633.8,303.8c0-19.9,14-36.4,32.6-40.4c-10.2-9.4-24-15.2-39.2-15.2c-31.4,0-56.9,24.7-56.9,55.1 c0,30.4,25.4,55.1,56.9,55.1c14.7,0,28.2-5.4,38.3-14.4C647.3,339.7,633.7,323.3,633.8,303.8z" />
</svg>
