<svg xmlns="http://www.w3.org/2000/svg" xmlns:xlink="http://www.w3.org/1999/xlink" id="Layer_1" x="0px" y="0px" viewBox="0 0 1194.9 530" style="enable-background:new 0 0 1194.9 530;" xml:space="preserve"><style type="text/css">	.st0{fill:#E91E46;}	.st1{fill:#FFFFFF;}	.st2{fill:none;stroke:#FFFFFF;stroke-width:4.7259;stroke-linecap:round;stroke-linejoin:round;}	.st3{fill:#231F20;}</style><g>	<path class="st0" d="M258.4,350c-37.8-0.3-61.7-24.1-61.9-59.8c-0.1-27.4-0.6-54.8-1-82.2c-0.2-12.3-4.8-21.3-19.8-23  c15.5-14.4,32.1-18,50.5-12.4c19,5.7,31.3,19,31.8,38.8C259.2,257.3,258.4,303.3,258.4,350L258.4,350z"></path>	<path class="st0" d="M165.6,333.7c-34.3,1.5-59.8-22.2-60.8-56.4c-0.6-22.6-0.1-45.3-0.8-67.9c-0.4-11.6-3.7-22.3-19.7-24.1  c12.1-12.4,25.7-16.9,41.3-14.5c18.2,2.7,31.9,12,37.9,30.1c1.7,5.2,2.8,10.9,2.8,16.4c0.3,37,0.2,73.9,0.2,110.9  C166.5,330,165.9,331.9,165.6,333.7L165.6,333.7z"></path>	<path class="st0" d="M0,185.2c18-15.8,36.2-19.1,56-10.6c19,8.2,26.9,23.8,26.9,43.9c0,26.1,0,52.3,0,78.4  c-37.4,0.4-61.8-23.2-62-58.7c-0.1-10.3,0.4-20.7-0.6-31C19.3,196,15.4,186.2,0,185.2L0,185.2z"></path></g><g>	<path class="st0" d="M719.6,154.9c-1.1,0.8-1.9,1.4-2.7,2.1c-11.4,8.7-22.6,17.5-34.1,25.9c-3.7,2.7-8.1,4.9-12.4,6.3  c-9.4,2.9-17.8,0.8-24.7-7.3c0,0,0,0,0,0c-0.4,0.3-6.6,5.3-10.3,12.2c-1.1,1.7-2,2.9-2.6,4.3c-6.7,14.8-7.7,29.9-2.4,45.2  c0.2,0.7,0.5,1.3,0.7,2c0.1,0.2,0.1,0.3,0.2,0.5c0.6,1.3,1.7,2.7-0.5,4.1c-3.2,2-3.9,2.1-5.2-1c-0.1-0.2-0.2-0.5-0.3-0.7  c-0.2-0.6-0.4-1.2-0.6-1.7c-11-30.6,0.8-63.4,29-79.8c6.8-3.9,14-7,20.9-10.5c-2.3,0.5-4.7,0.9-7.2,1.5c-2.6,0.7-5.1,1.5-7.6,2.4  c-2.4,0.8-4.8,1.7-7.2,2.7c-2.4,1-4.8,2.2-7.8,3.6c0.2-1.6,0.3-2.8,0.6-3.9c2.7-10,9.9-16.1,18.6-20.8c12.5-6.6,25.1-6.3,37.4,0  c5.7,2.9,10.8,7,16.2,10.7C718.2,153.1,718.7,153.9,719.6,154.9L719.6,154.9z"></path>	<g>		<path class="st0" d="M633.8,303.8c0-19.9,14-36.4,32.6-40.4c-10.2-9.4-24-15.2-39.2-15.2c-31.4,0-56.9,24.7-56.9,55.1   c0,30.4,25.4,55.1,56.9,55.1c14.7,0,28.2-5.4,38.3-14.4C647.3,339.7,633.7,323.3,633.8,303.8L633.8,303.8z"></path>		<path class="st1" d="M645.3,250.8c0,0-5.9,2.4-10.5,4.2c-4.6,1.8-7.4,1.7-15.6-2.1c-8.2-3.9-15.7,0.2-15.7,0.2   S624.6,240.7,645.3,250.8L645.3,250.8z"></path>	</g>	<path class="st2" d="M604.1,264.3c0,0-13.1,4.2-15.9,17.9"></path></g><path class="st3" d="M291.2,242.9c-2.5,0-6.3-0.5-10.2-1.5v109.7h20.8V241.3C298.1,242.4,294.3,242.9,291.2,242.9L291.2,242.9z  M291.2,192.2c-6.1,0-11.5,5.5-11.5,11.8c0,6.7,5,12,11.5,12c6.4,0,11.7-5.3,11.7-12C302.9,197.7,297.5,192.2,291.2,192.2z"></path><path class="st3" d="M417.8,285.4v65.6h-20.6v-65.6c0-16.6-12.1-29.6-27.5-29.6c-15.4,0-27.3,13-27.3,29.6v65.6h-20.8v-65.6 c0-28.9,19.8-49.2,48.1-49.2S417.8,256.5,417.8,285.4L417.8,285.4z"></path><path class="st3" d="M552.3,179.5v117.9c0,15.6-5.9,30.2-16.8,41c-10.8,10.9-25.2,16.9-40.6,16.9c-31.9,0-57.9-26.1-57.9-58.2 s26.4-56.9,57.7-56.9h5.4v20.6h-5.1c-20.4,0-37.1,16.9-37.1,37.6c0,20.7,16.6,36.3,37.1,36.3c20.4,0,36.5-16.5,36.5-36.8V179.5 H552.3z"></path><path class="st3" d="M788,291v66.1h-20.3V291c0-16.6-12.3-29.6-28.1-29.6c-15.7,0-27.5,13-27.5,29.6v66.1h-20.6V185.5h20.6v62.8 l9.6-3.6c5.8-2.2,11.8-3.3,17.9-3.3C768.5,241.5,788,261.4,788,291L788,291z"></path><path class="st3" d="M917.7,303.7c0-17.2-4.9-32.7-13.7-43.6c-9.4-11.6-22.9-17.8-39.2-17.8c-16.3,0-30.7,6.2-41.1,17.4 c-10.3,11.1-16,26.2-16,42.7c0,34.2,24.7,59,58.7,59c16.2,0,32.6-6.5,45.2-17.7L897.8,331c-9,7.8-20.3,12.1-31.7,12.1 c-17.5,0-31.2-11.5-35.8-30.1l-2.2-8.8h89.5V303.7z M828.7,293l2.8-9.2c4.4-14.6,16.7-23.6,32-23.6c15.3,0,27.4,9.1,31.3,23.9 l2.3,8.9H828.7z"></path><path class="st3" d="M998.7,246.3v20h-17.1c-13.9,0-24.9,10.9-24.9,24.9v65.9h-20.6v-65.9c0-24.8,20.1-44.9,44.9-44.9L998.7,246.3 L998.7,246.3z"></path><path class="st3" d="M1017.2,357.1v-65.9c0-24.8,20.1-44.9,44.9-44.9h17.6v20h-17.1c-13.9,0-24.9,10.9-24.9,24.9v65.9L1017.2,357.1 L1017.2,357.1z"></path><path class="st3" d="M1194.9,246.3v117.4c0,33.8-19.5,53.1-53.4,53.1h-22.6v-20.6h22.9c19.3,0,32.3-13.1,32.3-32.6v-14.4l-11,7.2 c-5.7,3.8-12.8,5.8-20.5,5.8c-26.1,0-44.4-20.4-44.4-49.7v-66.2h20.6v66.2c0,16.8,12.2,29.9,27.8,29.9s27.5-12.9,27.5-29.9v-66.2 L1194.9,246.3L1194.9,246.3z"></path></svg>